# xmcd
#
# Track frame offsets: 
#        150
#        13556
#        25848
#        38201
#        50475
#        63359
#        76645
#        90793
#        104957
#        117780
#        129171
#        142067
#        155283
#        168393
#        180326
#        195245
#        210119
#        222548
#        235701
#        252098
#        263307
#        271871
#        283863
#        295726
#        307646
#        318020
#        328312
#        339118
#
# Disc length: 4665 seconds
#
# Revision: 2
# Processed by: cddbd v1.5.2PL0 Copyright (c) Steve Scherf et al.
# Submitted via: ExactAudioCopy v1.0b3
#
DISCID=6912371c
DTITLE=Lennie Tristano - The New Sound
DYEAR=2018
DGENRE=Jazz
TTITLE0=Glad am I
TTITLE1=This is called love
TTITLE2=Blame me
TTITLE3=I found my baby
TTITLE4=Out on a limb
TTITLE5=I can't get started
TTITLE6=I surrender dear
TTITLE7=Interlude (A night in Tunisia)
TTITLE8=Blue Boy
TTITLE9=Atonement
TTITLE10=Coolin' off with Ulanov
TTITLE11=I don't stand a ghost of a chance
TTITLE12=Spontaneus combustion
TTITLE13=Just Judy
TTITLE14=Supersonic
TTITLE15=On a planet
TTITLE16=Air pocket
TTITLE17=Celestia
TTITLE18=Freedom
TTITLE19=Parallel
TTITLE20=Appellation
TTITLE21=Abstraction
TTITLE22=Palimpsest
TTITLE23=Dissonance
TTITLE24=New sound
TTITLE25=Through these portals
TTITLE26=Resemblance
TTITLE27=Speculation
EXTD=YEAR: 2018
EXTT0=
EXTT1=
EXTT2=
EXTT3=
EXTT4=
EXTT5=
EXTT6=
EXTT7=
EXTT8=
EXTT9=
EXTT10=
EXTT11=
EXTT12=
EXTT13=
EXTT14=
EXTT15=
EXTT16=
EXTT17=
EXTT18=
EXTT19=
EXTT20=
EXTT21=
EXTT22=
EXTT23=
EXTT24=
EXTT25=
EXTT26=
EXTT27=
PLAYORDER=
